<svg width="24" height="24" viewBox="0 0 24 24" fill="none" xmlns="http://www.w3.org/2000/svg">
<g id="ic/analytics">
<path id="Union" fill-rule="evenodd" clip-rule="evenodd" d="M12.8414 11.9798H20.1754C20.6632 11.9798 21.0448 12.4046 20.9962 12.8897C20.5066 17.7731 16.1219 21.5099 10.9937 20.9429C6.86722 20.4875 3.51294 17.1332 3.05664 13.0067C2.49145 7.87856 6.22643 3.49288 11.1107 3.00419C11.5967 2.95559 12.0206 3.33628 12.0206 3.82408V11.1599C12.0206 11.6126 12.3878 11.9798 12.8414 11.9798ZM20.2502 10.4998H14.25C13.836 10.4998 13.5003 10.165 13.5003 9.7501V3.74983C13.5003 3.33584 13.836 3.00014 14.25 3.00014C17.9714 3.00014 20.9999 6.02772 20.9999 9.7501C20.9999 10.165 20.6642 10.4998 20.2502 10.4998Z" fill="#A7AEB8"/>
</g>
</svg>
