<svg width="24" height="24" viewBox="0 0 24 24" fill="none" xmlns="http://www.w3.org/2000/svg">
<g clip-path="url(#clip0)">
<path d="M6.31885 14.1917L7.23899 18.7074C7.24399 18.7224 7.24899 18.7324 7.25899 18.7424C7.264 18.7424 7.264 18.7474 7.269 18.7474C10.1995 20.4177 13.79 20.4177 16.7205 18.7474L16.7305 18.7424C16.7405 18.7324 16.7455 18.7174 16.7505 18.7074L17.6656 14.1917C14.4551 17.1372 9.52935 17.1372 6.31885 14.1917Z" fill="#A7AEB8"/>
<path d="M11.9948 9.02572C9.44936 9.02572 6.62892 8.61065 5.00366 7.73051L5.91881 12.2112C6.42888 12.9513 7.06898 13.5914 7.8091 14.1015C11.1646 16.4119 15.7603 15.5667 18.0707 12.2112L18.9858 7.73051C18.4808 8.00556 17.9057 8.21059 17.3906 8.36061C15.9054 8.79068 13.9851 9.02572 11.9948 9.02572Z" fill="#A7AEB8"/>
<path d="M17.3956 4.71011C15.9603 4.25504 14.045 4 11.9997 4C9.95439 4 8.03909 4.25004 6.60387 4.71011C5.17865 5.16518 4.66357 5.68526 4.65356 6.00031L4.68357 6.15033C4.99362 6.94045 7.67404 8.02562 11.9947 8.02562C16.3154 8.02562 18.9958 6.94045 19.3059 6.14533L19.3459 6.00031C19.3309 5.68526 18.8158 5.16518 17.3956 4.71011Z" fill="#A7AEB8"/>
</g>
<defs>
<clipPath id="clip0">
<rect x="4" y="4" width="16" height="16" fill="white"/>
</clipPath>
</defs>
</svg>
