<svg width="24" height="24" viewBox="0 0 24 24" fill="none" xmlns="http://www.w3.org/2000/svg">
<path d="M19 18.3636C19 18.7151 18.7151 19 18.3636 19H5.63636C5.28488 19 5 18.7151 5 18.3636V10.0909H19V18.3636Z" fill="#A7AEB8"/>
<path d="M5.63636 6.27273H9.24242V5.63636C9.24242 5.28492 9.5273 5 9.87879 5C10.2302 5 10.5152 5.28492 10.5152 5.63636V6.27273H13.4848V5.63636C13.4848 5.28492 13.7698 5 14.1212 5C14.4727 5 14.7576 5.28492 14.7576 5.63636V6.27273H18.3636C18.7151 6.27273 19 6.55765 19 6.90909V8.81818H5V6.90909C5 6.55765 5.28488 6.27273 5.63636 6.27273Z" fill="#A7AEB8"/>
</svg>
