<svg width="24" height="24" viewBox="0 0 24 24" fill="none" xmlns="http://www.w3.org/2000/svg">
<g clip-path="url(#clip0)">
<path d="M16.7761 14.9029L15.2317 13.3584C14.9241 13.0521 14.4147 13.0614 14.0964 13.3798L13.3183 14.1577C13.2692 14.1306 13.2183 14.1023 13.1648 14.0723C12.6735 13.8 12.001 13.4269 11.2934 12.7187C10.5837 12.0091 10.2102 11.3356 9.9371 10.844C9.90829 10.7919 9.88068 10.7417 9.85342 10.694L10.3756 10.1726L10.6323 9.91552C10.9511 9.59662 10.9599 9.08737 10.653 8.78011L9.1087 7.23542C8.80181 6.92859 8.29218 6.9379 7.97337 7.2568L7.53812 7.69454L7.55002 7.70635C7.40407 7.89258 7.28212 8.10736 7.19136 8.33897C7.1077 8.55944 7.05562 8.76982 7.0318 8.98064C6.82788 10.6712 7.60041 12.2162 9.69696 14.3128C12.595 17.2107 14.9305 16.9917 15.0312 16.9811C15.2507 16.9548 15.461 16.9024 15.6747 16.8194C15.9043 16.7297 16.1189 16.6079 16.305 16.4623L16.3145 16.4707L16.7555 16.039C17.0736 15.7201 17.0828 15.2107 16.7761 14.9029Z" fill="#A7AEB8"/>
</g>
<defs>
<clipPath id="clip0">
<rect x="7" y="7" width="10" height="10" fill="white"/>
</clipPath>
</defs>
</svg>
