<svg width="24" height="24" viewBox="0 0 24 24" fill="none" xmlns="http://www.w3.org/2000/svg">
<g clip-path="url(#clip0)">
<path d="M12.0027 14.6265L11.9085 14.6115H11.9084L10.8967 14.4521V15.6769H13.1031V14.4521L12.0935 14.6112L12.0027 14.6265Z" fill="#A7AEB8"/>
<path d="M14.2789 14.245V16.2647C14.2789 16.5894 14.0157 16.8526 13.691 16.8526H10.309C9.98431 16.8526 9.7211 16.5894 9.7211 16.2647V14.2659L2 13.0466V20.9026C2 21.2273 2.26321 21.4905 2.58792 21.4905H21.4121C21.7368 21.4905 22 21.2273 22 20.9026V12.9518L14.2789 14.245Z" fill="#A7AEB8"/>
<path d="M11.6083 3.68365H12.3921C13.3983 3.68365 14.2909 4.17865 14.8396 4.93777H16.1963C15.529 3.50421 14.0749 2.50781 12.3921 2.50781H11.6083C9.92554 2.50781 8.47137 3.50421 7.80396 4.93777H9.16061C9.70932 4.1785 10.602 3.68365 11.6083 3.68365Z" fill="#A7AEB8"/>
<path d="M11.9973 13.4349L22 11.7596V6.70146C22 6.37675 21.7368 6.11354 21.4121 6.11354H2.58792C2.26321 6.11354 2 6.37675 2 6.70146V11.8562L11.9973 13.4349Z" fill="#A7AEB8"/>
</g>
<defs>
<clipPath id="clip0">
<rect x="2" y="2" width="20" height="20" fill="white"/>
</clipPath>
</defs>
</svg>
