<svg width="24" height="24" viewBox="0 0 24 24" fill="none" xmlns="http://www.w3.org/2000/svg">
<path d="M10.4581 12.0001L5.22366 6.76543C5.07967 6.62133 5.00023 6.42909 5 6.2241C5 6.01899 5.07945 5.82652 5.22366 5.68265L5.68236 5.22406C5.82657 5.07962 6.01881 5.00052 6.22403 5.00052C6.42891 5.00052 6.62115 5.07962 6.76537 5.22406L11.9998 10.4584L17.2344 5.22406C17.3784 5.07962 17.5707 5.00052 17.7759 5.00052C17.9807 5.00052 18.1731 5.07962 18.3171 5.22406L18.776 5.68265C19.0747 5.98132 19.0747 6.4671 18.776 6.76543L13.5415 12.0001L18.776 17.2345C18.9201 17.3788 18.9994 17.571 18.9994 17.776C18.9994 17.981 18.9201 18.1733 18.776 18.3175L18.3172 18.7761C18.1732 18.9204 17.9807 18.9996 17.776 18.9996C17.5709 18.9996 17.3785 18.9204 17.2345 18.7761L11.9999 13.5417L6.76548 18.7761C6.62127 18.9204 6.42902 18.9996 6.22415 18.9996H6.22392C6.01893 18.9996 5.82668 18.9204 5.68247 18.7761L5.22377 18.3175C5.07979 18.1734 5.00034 17.981 5.00034 17.776C5.00034 17.571 5.07979 17.3788 5.22377 17.2346L10.4581 12.0001Z" fill="#A7AEB8"/>
</svg>
