<svg width="24" height="24" viewBox="0 0 24 24" fill="none" xmlns="http://www.w3.org/2000/svg">
<path d="M11.7313 19C11.6318 19 11.5473 18.9637 11.4776 18.8911C11.4179 18.8289 11.3881 18.7459 11.3881 18.6422V17.5533C10.6915 17.4911 10.0896 17.3252 9.58209 17.0556C9.07463 16.7756 8.68657 16.4333 8.41791 16.0289C8.1592 15.6141 8.0199 15.1733 8 14.7067C8 14.6237 8.02985 14.5511 8.08955 14.4889C8.1592 14.4163 8.23881 14.38 8.32836 14.38H9.10448C9.28358 14.38 9.40796 14.4837 9.47761 14.6911C9.57711 15.1267 9.83582 15.5 10.2537 15.8111C10.6716 16.1222 11.2637 16.2778 12.0299 16.2778C12.8557 16.2778 13.4776 16.1274 13.8955 15.8267C14.3134 15.5156 14.5224 15.0852 14.5224 14.5356C14.5224 14.183 14.4179 13.8978 14.209 13.68C14.01 13.4622 13.7114 13.2704 13.3134 13.1044C12.9154 12.9385 12.3184 12.7311 11.5224 12.4822C10.7463 12.2541 10.1294 12.0104 9.67164 11.7511C9.21393 11.4919 8.87065 11.1704 8.64179 10.7867C8.41294 10.403 8.29851 9.92074 8.29851 9.34C8.29851 8.57259 8.57214 7.92444 9.1194 7.39556C9.66667 6.8563 10.4229 6.53481 11.3881 6.43111V5.35778C11.3881 5.25407 11.4179 5.17111 11.4776 5.10889C11.5473 5.0363 11.6318 5 11.7313 5H12.2985C12.398 5 12.4776 5.0363 12.5373 5.10889C12.607 5.17111 12.6418 5.25407 12.6418 5.35778V6.44667C13.2786 6.52963 13.8209 6.7163 14.2687 7.00667C14.7264 7.29704 15.0697 7.63926 15.2985 8.03333C15.5373 8.42741 15.6667 8.82148 15.6866 9.21555C15.6866 9.29852 15.6567 9.37111 15.597 9.43333C15.5473 9.49556 15.4726 9.52667 15.3731 9.52667H14.5821C14.3731 9.52667 14.2438 9.42815 14.194 9.23111C14.1343 8.79555 13.9005 8.43778 13.4925 8.15778C13.0846 7.86741 12.5721 7.72222 11.9552 7.72222C11.2786 7.72222 10.7463 7.85704 10.3582 8.12667C9.97015 8.3963 9.77612 8.79556 9.77612 9.32444C9.77612 9.67704 9.86567 9.96741 10.0448 10.1956C10.2338 10.4237 10.5174 10.6259 10.8955 10.8022C11.2736 10.9681 11.8259 11.16 12.5522 11.3778C13.398 11.6163 14.0647 11.8652 14.5522 12.1244C15.0398 12.3733 15.403 12.6896 15.6418 13.0733C15.8806 13.4467 16 13.9237 16 14.5044C16 15.3859 15.7015 16.0963 15.1045 16.6356C14.5075 17.1644 13.6866 17.4756 12.6418 17.5689V18.6422C12.6418 18.7459 12.607 18.8289 12.5373 18.8911C12.4776 18.9637 12.398 19 12.2985 19H11.7313Z" fill="#A7AEB8"/>
</svg>
