<svg width="24" height="24" viewBox="0 0 24 24" fill="none" xmlns="http://www.w3.org/2000/svg">
<path d="M5.53568 9.87498C5.73808 10.0178 6.34818 10.442 7.36601 11.1473C8.38388 11.8526 9.16364 12.3957 9.70531 12.7766C9.76482 12.8183 9.89126 12.9091 10.0847 13.049C10.2781 13.189 10.4389 13.3021 10.5668 13.3884C10.6948 13.4746 10.8495 13.5714 11.0312 13.6785C11.2127 13.7855 11.3839 13.866 11.5446 13.9193C11.7053 13.973 11.8541 13.9996 11.991 13.9996H12H12.009C12.1459 13.9996 12.2947 13.973 12.4555 13.9193C12.6161 13.866 12.7874 13.7854 12.9688 13.6785C13.1504 13.5712 13.3051 13.4746 13.4331 13.3884C13.5611 13.3021 13.7217 13.189 13.9152 13.049C14.1086 12.909 14.2352 12.8183 14.2947 12.7766C14.8422 12.3957 16.2352 11.4284 18.4732 9.87479C18.9077 9.57135 19.2707 9.20521 19.5624 8.77662C19.8542 8.34821 20 7.89879 20 7.4286C20 7.03569 19.8585 6.69935 19.5758 6.41962C19.293 6.13982 18.9581 6 18.5714 6H5.42851C4.97021 6 4.61751 6.15474 4.37049 6.46421C4.1235 6.77375 4 7.16066 4 7.6249C4 7.99989 4.16374 8.40625 4.49108 8.84373C4.81838 9.28123 5.16669 9.62502 5.53568 9.87498Z" fill="#A7AEB8"/>
<path d="M19.107 10.7764C17.1548 12.0977 15.6725 13.1245 14.6607 13.8568C14.3215 14.1067 14.0462 14.3017 13.8349 14.4415C13.6235 14.5814 13.3424 14.7243 12.9911 14.87C12.64 15.016 12.3127 15.0888 12.0091 15.0888H12H11.991C11.6875 15.0888 11.36 15.016 11.0089 14.87C10.6578 14.7243 10.3765 14.5814 10.1652 14.4415C9.95393 14.3017 9.67861 14.1067 9.33936 13.8568C8.53574 13.2675 7.0566 12.2406 4.90188 10.7764C4.5625 10.5503 4.26191 10.2912 4 9.9996V17.0887C4 17.4818 4.13982 17.8179 4.41962 18.0977C4.69935 18.3776 5.03572 18.5174 5.4286 18.5174H18.5715C18.9643 18.5174 19.3006 18.3776 19.5804 18.0977C19.8602 17.8178 20 17.4818 20 17.0887V9.9996C19.744 10.2852 19.4465 10.5443 19.107 10.7764Z" fill="#A7AEB8"/>
</svg>
