<svg width="24" height="24" viewBox="0 0 24 24" fill="none" xmlns="http://www.w3.org/2000/svg">
<path fill-rule="evenodd" clip-rule="evenodd" d="M3.5 2H3C2.44772 2 2 2.44772 2 3V3.5V7.25C2 7.66421 2.33579 8 2.75 8C3.16421 8 3.5 7.66421 3.5 7.25V4.5C3.5 3.94772 3.94772 3.5 4.5 3.5L7.25 3.5C7.66421 3.5 8 3.16421 8 2.75C8 2.33579 7.66421 2 7.25 2H3.5Z" fill="#A7AEB8"/>
<path fill-rule="evenodd" clip-rule="evenodd" d="M16 2.75C16 2.33579 16.3358 2 16.75 2H20.5H21C21.5523 2 22 2.44772 22 3V3.5V7.25C22 7.66421 21.6642 8 21.25 8C20.8358 8 20.5 7.66421 20.5 7.25V4.5C20.5 3.94772 20.0523 3.5 19.5 3.5L16.75 3.5C16.3358 3.5 16 3.16421 16 2.75Z" fill="#A7AEB8"/>
<path fill-rule="evenodd" clip-rule="evenodd" d="M20.5 22L16.75 22C16.3358 22 16 21.6642 16 21.25C16 20.8358 16.3358 20.5 16.75 20.5L19.5 20.5C20.0523 20.5 20.5 20.0523 20.5 19.5V16.75C20.5 16.3358 20.8358 16 21.25 16C21.6642 16 22 16.3358 22 16.75V20.5V21C22 21.5523 21.5523 22 21 22H20.5Z" fill="#A7AEB8"/>
<path fill-rule="evenodd" clip-rule="evenodd" d="M3.5 22H3C2.44772 22 2 21.5523 2 21V20.5V16.75C2 16.3358 2.33579 16 2.75 16C3.16421 16 3.5 16.3358 3.5 16.75V19.5C3.5 20.0523 3.94772 20.5 4.5 20.5L7.25 20.5C7.66421 20.5 8 20.8358 8 21.25C8 21.6642 7.66421 22 7.25 22L3.5 22Z" fill="#A7AEB8"/>
</svg>
