<svg width="24" height="24" viewBox="0 0 24 24" fill="none" xmlns="http://www.w3.org/2000/svg">
<path d="M16.6234 3.00375L14.2249 3C11.5302 3 9.78878 4.73871 9.78878 7.42982V9.47227H7.37715C7.16875 9.47227 7 9.63668 7 9.83949V12.7988C7 13.0016 7.16895 13.1658 7.37715 13.1658H9.78878V20.633C9.78878 20.8358 9.95753 21 10.1659 21H13.3124C13.5208 21 13.6896 20.8356 13.6896 20.633V13.1658H16.5093C16.7177 13.1658 16.8865 13.0016 16.8865 12.7988L16.8876 9.83949C16.8876 9.74211 16.8478 9.64886 16.7772 9.57994C16.7066 9.51103 16.6103 9.47227 16.5103 9.47227H13.6896V7.74086C13.6896 6.90868 13.8933 6.48622 15.0073 6.48622L16.623 6.48566C16.8312 6.48566 17 6.32124 17 6.11863V3.37077C17 3.16835 16.8314 3.00412 16.6234 3.00375Z" fill="#A7AEB8"/>
</svg>
