<svg width="24" height="24" viewBox="0 0 24 24" fill="none" xmlns="http://www.w3.org/2000/svg">
<path d="M10.015 7.40296V3.98633H9.97687C9.83423 3.98633 9.6976 4.04305 9.59673 4.14378L6.14182 7.59869C6.04096 7.69955 5.98438 7.83618 5.98438 7.97882V8.0171H9.40101C9.73965 8.0171 10.015 7.7416 10.015 7.40296Z" fill="#A7AEB8"/>
<path d="M18 18.3436V5.6755C18 4.74674 17.2491 3.98633 16.3108 3.98633H11.0903V7.40296C11.0903 8.33437 10.3324 9.09213 9.40101 9.09213H5.98438V18.3436C5.98438 19.275 6.74214 20.0327 7.67355 20.0327H16.3108C17.2396 20.0327 18 19.2818 18 18.3436Z" fill="#A7AEB8"/>
</svg>
