<svg width="24" height="24" viewBox="0 0 24 24" fill="none" xmlns="http://www.w3.org/2000/svg">
<path d="M17.3727 5H6.63335C5.73433 5 5 5.7283 5 6.62733V17.3662C5 18.2665 5.73473 19 6.63335 19H17.3727C18.2713 19 19 18.2665 19 17.3662V6.62773C19 5.7279 18.2713 5 17.3727 5ZM17.1517 16.4644C17.0622 16.6299 16.8898 16.7279 16.7018 16.7279H7.49984C7.33795 16.7279 7.1857 16.6556 7.08929 16.5263C6.99288 16.3961 6.96356 16.2306 7.01016 16.0751L8.32656 11.721C8.41333 11.4346 8.65516 11.2229 8.95082 11.1743C9.24648 11.1261 9.54374 11.2506 9.71728 11.4944L11.5579 14.0803C11.8058 14.4285 12.2858 14.5149 12.6381 14.2747L14.3329 13.1238C14.5073 13.0053 14.7214 12.9623 14.9275 13.0037C15.1343 13.0446 15.3155 13.1676 15.4308 13.3443L17.1296 15.9442C17.2325 16.1021 17.2409 16.2997 17.1517 16.4644Z" fill="#A7AEB8"/>
</svg>
