<svg width="24" height="24" viewBox="0 0 24 24" fill="none" xmlns="http://www.w3.org/2000/svg">
<path fill-rule="evenodd" clip-rule="evenodd" d="M11.9999 9.39355L10.9748 7.7089C10.4198 6.79674 9.43584 6.2 8.32026 6.2C6.60821 6.2 5.2 7.60513 5.2 9.36437C5.2 10.3178 5.61666 11.1686 6.27641 11.75L6.3071 11.777L12 17.5276L17.6928 11.777L17.7235 11.75C18.3833 11.1686 18.8 10.3178 18.8 9.36437C18.8 7.60533 17.3914 6.2 15.6792 6.2C14.5638 6.2 13.5803 6.79658 13.0251 7.70896L11.9999 9.39355ZM11.2019 6.11747C10.4381 5.42324 9.429 5 8.32026 5C5.93395 5 4 6.95396 4 9.36437C4 10.6767 4.57571 11.8508 5.48307 12.6503L11.6057 18.835C11.7102 18.9407 11.852 19 12 19C12.1479 19 12.2897 18.9407 12.3942 18.835L18.5168 12.6503C19.4242 11.8508 20 10.6767 20 9.36437C20 6.95396 18.0655 5 15.6792 5C14.5704 5 13.5616 5.42323 12.798 6.11744C12.4885 6.39885 12.2192 6.72479 12 7.08513C11.7807 6.72481 11.5114 6.39888 11.2019 6.11747Z" fill="#A7AEB8"/>
</svg>
