<svg width="24" height="24" viewBox="0 0 24 24" fill="none" xmlns="http://www.w3.org/2000/svg">
<path fill-rule="evenodd" clip-rule="evenodd" d="M6.0001 7.90001C4.91271 7.90001 3.86986 8.33197 3.10096 9.10087C2.33206 9.86977 1.9001 10.9126 1.9001 12C1.9001 13.0874 2.33206 14.1302 3.10096 14.8991C3.48168 15.2799 3.93366 15.5819 4.4311 15.7879C4.92853 15.994 5.46168 16.1 6.0001 16.1H9.0001C9.49715 16.1 9.9001 16.5029 9.9001 17C9.9001 17.4971 9.49715 17.9 9.0001 17.9H6.0001C5.2253 17.9 4.45809 17.7474 3.74227 17.4509C3.02644 17.1544 2.37603 16.7198 1.82817 16.1719C0.721703 15.0655 0.100098 13.5648 0.100098 12C0.100098 10.4352 0.721703 8.93454 1.82817 7.82808C2.93463 6.72161 4.43532 6.10001 6.0001 6.10001H9.0001C9.49715 6.10001 9.9001 6.50295 9.9001 7.00001C9.9001 7.49706 9.49715 7.90001 9.0001 7.90001H6.0001ZM14.1001 7.00001C14.1001 6.50295 14.503 6.10001 15.0001 6.10001H18.0001C18.7749 6.10001 19.5421 6.25261 20.2579 6.54912C20.9738 6.84562 21.6242 7.28021 22.172 7.82808C22.7199 8.37594 23.1545 9.02635 23.451 9.74217C23.7475 10.458 23.9001 11.2252 23.9001 12C23.9001 12.7748 23.7475 13.542 23.451 14.2578C23.1545 14.9737 22.7199 15.6241 22.172 16.1719C21.6242 16.7198 20.9738 17.1544 20.2579 17.4509C19.5421 17.7474 18.7749 17.9 18.0001 17.9H15.0001C14.503 17.9 14.1001 17.4971 14.1001 17C14.1001 16.5029 14.503 16.1 15.0001 16.1H18.0001C18.5385 16.1 19.0717 15.994 19.5691 15.7879C20.0665 15.5819 20.5185 15.2799 20.8992 14.8991C21.28 14.5184 21.582 14.0664 21.788 13.569C21.994 13.0716 22.1001 12.5384 22.1001 12C22.1001 11.4616 21.994 10.9284 21.788 10.431C21.582 9.93357 21.28 9.48159 20.8992 9.10087C20.5185 8.72015 20.0665 8.41814 19.5691 8.2121C19.0717 8.00606 18.5385 7.90001 18.0001 7.90001H15.0001C14.503 7.90001 14.1001 7.49706 14.1001 7.00001Z" fill="#A7AEB8"/>
<path fill-rule="evenodd" clip-rule="evenodd" d="M7.1001 12C7.1001 11.5029 7.50304 11.1 8.0001 11.1H16.0001C16.4972 11.1 16.9001 11.5029 16.9001 12C16.9001 12.4971 16.4972 12.9 16.0001 12.9H8.0001C7.50304 12.9 7.1001 12.4971 7.1001 12Z" fill="#A7AEB8"/>
</svg>
