<svg width="24" height="24" viewBox="0 0 24 24" fill="none" xmlns="http://www.w3.org/2000/svg">
<path d="M21.9947 10.5009C21.9736 10.3502 21.8923 10.2137 21.7685 10.1215L12.3551 3.11707C12.1453 2.96098 11.8548 2.96098 11.645 3.11707L2.23149 10.1215C2.10766 10.2136 2.02633 10.3502 2.00536 10.5009C1.98438 10.6518 2.02551 10.8046 2.11966 10.9257L3.43931 12.6235L11.645 6.51777C11.8548 6.36167 12.1452 6.36167 12.3551 6.51777L20.5607 12.6235L21.8804 10.9257C21.9745 10.8046 22.0156 10.6518 21.9947 10.5009Z" fill="#A7AEB8"/>
<path d="M14.5082 15.8556C14.0554 15.8556 13.687 16.2161 13.687 16.6591C13.687 17.1021 14.0554 17.4626 14.5082 17.4626C14.9611 17.4626 15.3294 17.1022 15.3294 16.6591C15.3294 16.2161 14.961 15.8556 14.5082 15.8556Z" fill="#A7AEB8"/>
<path d="M9.49162 12.3437C9.03881 12.3437 8.67041 12.7042 8.67041 13.1472C8.67041 13.5902 9.03877 13.9507 9.49162 13.9507C9.94444 13.9507 10.3128 13.5903 10.3128 13.1472C10.3128 12.7042 9.9444 12.3437 9.49162 12.3437Z" fill="#A7AEB8"/>
<path d="M11.9999 7.69521L4.81299 13.0429V20.4261C4.81299 20.7431 5.07561 21 5.39951 21H18.6C18.9239 21 19.1865 20.7431 19.1865 20.4261V13.0427L11.9999 7.69521ZM7.49725 13.1475C7.49725 12.0716 8.39182 11.1963 9.49147 11.1963C10.5911 11.1963 11.4857 12.0716 11.4857 13.1475C11.4857 14.2234 10.5911 15.0987 9.49147 15.0987C8.39182 15.0987 7.49725 14.2234 7.49725 13.1475ZM10.1617 18.6106C10.0627 18.6106 9.96233 18.586 9.8703 18.5343C9.58933 18.3766 9.49233 18.0259 9.65354 17.751L13.3289 11.4845C13.4901 11.2096 13.8486 11.1147 14.1295 11.2724C14.4105 11.4301 14.5075 11.7808 14.3463 12.0558L10.6709 18.3223C10.5625 18.5071 10.3649 18.6106 10.1617 18.6106ZM14.5083 18.6105C13.4087 18.6105 12.5141 17.7352 12.5141 16.6593C12.5141 15.5833 13.4087 14.708 14.5083 14.708C15.608 14.708 16.5025 15.5833 16.5025 16.6593C16.5025 17.7352 15.6079 18.6105 14.5083 18.6105Z" fill="#A7AEB8"/>
</svg>
