<svg width="24" height="24" viewBox="0 0 24 24" fill="none" xmlns="http://www.w3.org/2000/svg">
<path d="M12.0002 6C9.60387 6 7.6543 7.94958 7.6543 10.3459C7.6543 13.3199 11.5435 17.6858 11.7091 17.8702C11.8646 18.0434 12.1362 18.0431 12.2914 17.8702C12.457 17.6858 16.3462 13.3199 16.3462 10.3459C16.3461 7.94958 14.3966 6 12.0002 6ZM12.0002 12.5325C10.7946 12.5325 9.81371 11.5516 9.81371 10.3459C9.81371 9.14025 10.7946 8.15939 12.0002 8.15939C13.2059 8.15939 14.1867 9.14027 14.1867 10.3459C14.1867 11.5516 13.2059 12.5325 12.0002 12.5325Z" fill="#A7AEB8"/>
</svg>
