<svg width="24" height="24" viewBox="0 0 24 24" fill="none" xmlns="http://www.w3.org/2000/svg">
<g clip-path="url(#clip0)">
<path d="M16.7765 9.20403L14.7969 7.22446C14.499 6.92652 14.0162 6.92652 13.718 7.22446C13.5749 7.36747 13.4945 7.56115 13.4945 7.76347C13.4945 7.91155 13.5384 8.05524 13.6178 8.17784L10.9728 10.453C10.7005 10.327 10.4026 10.2575 10.0965 10.2575C9.54312 10.2575 9.01229 10.4772 8.6204 10.8691C8.33469 11.1551 8.33469 11.6182 8.6204 11.9042L9.81008 13.0942L7 17.001L10.9068 14.1909L12.0965 15.3806C12.3821 15.6663 12.8459 15.6663 13.1319 15.3806C13.5232 14.989 13.7431 14.4582 13.7431 13.9046C13.7431 13.5988 13.674 13.3009 13.548 13.0288L15.8235 10.3832C15.9458 10.4625 16.0891 10.5065 16.2372 10.5065C16.4395 10.5065 16.6336 10.4261 16.7765 10.2828C17.0745 9.98481 17.0745 9.50197 16.7765 9.20403Z" fill="#A7AEB8"/>
</g>
<defs>
<clipPath id="clip0">
<rect x="7" y="7" width="10" height="10" fill="white"/>
</clipPath>
</defs>
</svg>
