<svg width="24" height="24" viewBox="0 0 24 24" fill="none" xmlns="http://www.w3.org/2000/svg">
<g clip-path="url(#clip0)">
<path d="M11.1191 12.8813L5.13674 12.8812C4.97212 12.8811 4.81687 12.8167 4.6996 12.6996C4.5824 12.5824 4.51781 12.4271 4.51801 12.2624L4.51807 11.7383C4.51794 11.5733 4.58259 11.4183 4.69986 11.301C4.81694 11.1839 4.972 11.1193 5.13694 11.1194L11.1191 11.1193L11.1193 5.13703C11.119 4.97221 11.1838 4.81709 11.301 4.69989C11.418 4.58281 11.5732 4.5181 11.738 4.51836L12.2623 4.51816C12.6036 4.51816 12.8812 4.79576 12.881 5.1369L12.8811 11.1193L18.8634 11.1193C19.0282 11.1194 19.1834 11.1839 19.3005 11.3011C19.4177 11.4182 19.4822 11.5734 19.4823 11.7381L19.4821 12.2624C19.4823 12.4271 19.4176 12.5824 19.3006 12.6994C19.1834 12.8166 19.0282 12.8812 18.8635 12.881L12.8811 12.8812L12.8811 18.8634C12.8811 19.0283 12.8166 19.1834 12.6995 19.3005L12.6994 19.3006C12.5822 19.4178 12.4271 19.4823 12.2622 19.4823L11.738 19.4823C11.5734 19.4823 11.4181 19.4178 11.301 19.3006C11.1838 19.1835 11.1194 19.0282 11.1192 18.8635L11.1191 12.8813Z" fill="#A7AEB8"/>
</g>
<defs>
<clipPath id="clip0">
<rect width="11.3138" height="11.3138" transform="matrix(-0.707107 0.707107 0.707107 0.707107 12 4)" fill="white"/>
</clipPath>
</defs>
</svg>
