<svg width="24" height="24" viewBox="0 0 24 24" fill="none" xmlns="http://www.w3.org/2000/svg">
<path d="M14.0359 8.0581L14.0359 8.0581L8.15614 14.4633L5.96407 12.0754C5.70936 11.7979 5.29068 11.798 5.03596 12.0754L5.03596 12.0754C4.78801 12.3455 4.78802 12.7785 5.03595 13.0485L5.14623 12.9473L5.03595 13.0486L7.69207 15.942C7.94674 16.2195 8.36568 16.2192 8.62019 15.942L14.964 9.03127C14.964 9.03127 14.9641 9.03127 14.9641 9.03127C15.212 8.76119 15.212 8.32819 14.9641 8.05811C14.7094 7.78062 14.2907 7.78064 14.0359 8.0581Z" fill="#A7AEB8" stroke="#A7AEB8" stroke-width="0.3"/>
<path d="M18.0359 8.0581L18.0359 8.0581L12.1538 14.4659L11.6082 13.8962L11.4975 13.7807L11.3894 13.8986L10.6553 14.6986L10.5584 14.8043L10.6596 14.9059L11.6943 15.9444C11.9491 16.2195 12.3664 16.2184 12.6202 15.942L18.964 9.03127C18.964 9.03127 18.964 9.03127 18.964 9.03127C19.212 8.76119 19.2119 8.32819 18.964 8.05811C18.7093 7.78062 18.2906 7.78064 18.0359 8.0581Z" fill="#A7AEB8" stroke="#A7AEB8" stroke-width="0.3"/>
</svg>
