<svg width="24" height="24" viewBox="0 0 24 24" fill="none" xmlns="http://www.w3.org/2000/svg">
<path fill-rule="evenodd" clip-rule="evenodd" d="M6.5 8H7C7.55228 8 8 7.55228 8 7V6.5V2.75C8 2.33579 7.66421 2 7.25 2C6.83579 2 6.5 2.33579 6.5 2.75V5.5C6.5 6.05228 6.05228 6.5 5.5 6.5L2.75 6.5C2.33579 6.5 2 6.83579 2 7.25C2 7.66421 2.33579 8 2.75 8H6.5Z" fill="#A7AEB8"/>
<path fill-rule="evenodd" clip-rule="evenodd" d="M22 7.25C22 7.66421 21.6642 8 21.25 8H17.5H17C16.4477 8 16 7.55228 16 7V6.5V2.75C16 2.33579 16.3358 2 16.75 2C17.1642 2 17.5 2.33579 17.5 2.75V5.5C17.5 6.05228 17.9477 6.5 18.5 6.5L21.25 6.5C21.6642 6.5 22 6.83579 22 7.25Z" fill="#A7AEB8"/>
<path fill-rule="evenodd" clip-rule="evenodd" d="M17.5 16L21.25 16C21.6642 16 22 16.3358 22 16.75C22 17.1642 21.6642 17.5 21.25 17.5L18.5 17.5C17.9477 17.5 17.5 17.9477 17.5 18.5V21.25C17.5 21.6642 17.1642 22 16.75 22C16.3358 22 16 21.6642 16 21.25V17.5V17C16 16.4477 16.4477 16 17 16H17.5Z" fill="#A7AEB8"/>
<path fill-rule="evenodd" clip-rule="evenodd" d="M6.5 16H7C7.55228 16 8 16.4477 8 17V17.5V21.25C8 21.6642 7.66421 22 7.25 22C6.83579 22 6.5 21.6642 6.5 21.25V18.5C6.5 17.9477 6.05228 17.5 5.5 17.5L2.75 17.5C2.33579 17.5 2 17.1642 2 16.75C2 16.3358 2.33579 16 2.75 16L6.5 16Z" fill="#A7AEB8"/>
</svg>
