<svg width="24" height="24" viewBox="0 0 24 24" fill="none" xmlns="http://www.w3.org/2000/svg">
<path d="M8.8458 11.2537C7.92024 11.2537 7.16724 12.0068 7.16724 12.9323C7.16724 13.8578 7.92027 14.6109 8.8458 14.6109C9.77133 14.6109 10.5244 13.8578 10.5244 12.9323C10.5244 12.0067 9.77136 11.2537 8.8458 11.2537Z" fill="#A7AEB8"/>
<path d="M14.8081 15.5554V14.4393H13.6921V13.0323C13.6921 12.3052 13.5308 11.6153 13.2427 10.9958L14.0601 10.6124C13.6154 9.66431 12.9205 8.85222 12.0504 8.26393L11.546 9.01003C10.7739 8.49012 9.84478 8.18631 8.846 8.18631C6.17394 8.18625 4 10.3602 4 13.0323V15.7921C4 16.7977 4.81816 17.6158 5.82378 17.6158H14.8081V16.4998H19.0556V17.8133H20V15.5554H14.8081ZM8.84603 15.5551C7.39975 15.5551 6.22306 14.3785 6.22306 12.9322C6.22306 11.4858 7.39972 10.3092 8.84603 10.3092C10.2923 10.3092 11.469 11.4858 11.469 12.9322C11.469 14.3785 10.2923 15.5551 8.84603 15.5551Z" fill="#A7AEB8"/>
</svg>
