<svg width="24" height="24" viewBox="0 0 24 24" fill="none" xmlns="http://www.w3.org/2000/svg">
<path d="M17.0149 14.169C16.0886 14.169 15.2715 14.6103 14.7377 15.2861L9.78642 12.7541C9.85124 12.5123 9.89783 12.2625 9.89783 11.9996C9.89783 11.7134 9.8425 11.444 9.76529 11.1818L14.6947 8.66143C15.2256 9.36782 16.0638 9.82953 17.0156 9.82953C18.6279 9.82953 19.9321 8.52527 19.9321 6.91441C19.9322 5.305 18.6279 4 17.0156 4C15.4069 4 14.1012 5.305 14.1012 6.91438C14.1012 7.17801 14.1479 7.42851 14.2134 7.67101L9.26284 10.2031C8.72831 9.52657 7.90976 9.0838 6.982 9.0838C5.37114 9.0838 4.06763 10.3895 4.06763 11.9996C4.06763 13.6097 5.37117 14.9147 6.982 14.9147C7.93525 14.9147 8.77274 14.4516 9.30578 13.7445L14.233 16.2649C14.1558 16.5263 14.0997 16.798 14.0997 17.0849C14.0997 18.695 15.4055 20 17.0141 20C18.6264 20 19.9307 18.695 19.9307 17.0849C19.9314 15.4733 18.6272 14.169 17.0149 14.169Z" fill="#A7AEB8"/>
</svg>
