<svg width="24" height="24" viewBox="0 0 24 24" fill="none" xmlns="http://www.w3.org/2000/svg">
<g clip-path="url(#clip0)">
<path d="M18.8517 9.89837L14.8516 5.8984C14.7526 5.79942 14.6355 5.74992 14.5001 5.74992C14.3647 5.74992 14.2474 5.79942 14.1485 5.8984C14.0496 5.99743 14 6.11463 14 6.25002V8.25001H12.25C8.53632 8.25001 6.2578 9.29951 5.41393 11.3985C5.13797 12.0963 5 12.9636 5 14C5 14.8646 5.33075 16.039 5.99218 17.5234C6.00778 17.56 6.03503 17.6223 6.07416 17.7109C6.11327 17.7993 6.14837 17.8775 6.17962 17.9452C6.21098 18.0128 6.24486 18.0701 6.28128 18.117C6.34372 18.2055 6.41667 18.2499 6.50002 18.2499C6.57815 18.2499 6.63936 18.2239 6.68366 18.1718C6.72785 18.1198 6.74999 18.0546 6.74999 17.9767C6.74999 17.9297 6.74348 17.8608 6.73043 17.7696C6.7174 17.6784 6.71086 17.6173 6.71086 17.586C6.68478 17.232 6.67176 16.9114 6.67176 16.6252C6.67176 16.0991 6.7174 15.6278 6.80847 15.2111C6.89967 14.7944 7.02596 14.4338 7.18746 14.1291C7.34893 13.8243 7.55719 13.5614 7.81247 13.3401C8.06764 13.1187 8.34234 12.9378 8.63661 12.7971C8.93094 12.6564 9.27728 12.5457 9.67572 12.4651C10.0741 12.3843 10.4752 12.3283 10.8788 12.297C11.2825 12.2658 11.7396 12.2502 12.25 12.2502H14V14.2503C14 14.3857 14.0495 14.5029 14.1483 14.6018C14.2474 14.7007 14.3645 14.7502 14.4999 14.7502C14.6353 14.7502 14.7525 14.7007 14.8516 14.6018L18.8516 10.6017C18.9506 10.5027 19 10.3856 19 10.2502C19 10.1148 18.9506 9.99753 18.8517 9.89837Z" fill="#A7AEB8"/>
</g>
<defs>
<clipPath id="clip0">
<rect x="5" y="5" width="14" height="14" fill="white"/>
</clipPath>
</defs>
</svg>
