<svg width="24" height="24" viewBox="0 0 24 24" fill="none" xmlns="http://www.w3.org/2000/svg">
<g clip-path="url(#clip0)">
<path d="M19.0911 7.09098C18.3626 6.36249 17.394 5.96132 16.3638 5.96132C15.3336 5.96132 14.365 6.36253 13.6365 7.09098L8.72718 12.0003C7.82487 12.9026 7.82487 14.3707 8.72721 15.2731C9.62956 16.1754 11.0977 16.1753 12 15.273L14.8329 12.4402C15.1341 12.1389 15.1341 11.6505 14.8329 11.3492C14.5316 11.048 14.0432 11.048 13.742 11.3492L10.9091 14.1821C10.6083 14.4829 10.1189 14.4828 9.81814 14.1822C9.51737 13.8814 9.51734 13.392 9.8181 13.0912L14.7274 8.18191C15.1645 7.74481 15.7457 7.50411 16.3638 7.50411C16.982 7.50411 17.5631 7.74481 18.0002 8.18187C18.9025 9.08421 18.9025 10.5523 18.0003 11.4547L12.5456 16.9094C11.0417 18.4131 8.59474 18.4132 7.09093 16.9094C6.36245 16.1809 5.96117 15.2123 5.96121 14.1821C5.96117 13.1519 6.36241 12.1833 7.09093 11.4548L12.5455 6.00002C12.8468 5.69874 12.8468 5.21033 12.5455 4.90909C12.2443 4.60785 11.7558 4.60785 11.4546 4.90909L6.00001 10.3638C4.98006 11.3837 4.41838 12.7397 4.41834 14.1821C4.41834 15.6245 4.98003 16.9805 5.99997 18.0004C8.10528 20.1057 11.531 20.1057 13.6365 18.0004L19.0912 12.5456C20.595 11.0418 20.5949 8.59482 19.0911 7.09098Z" fill="#A7AEB8"/>
</g>
<defs>
<clipPath id="clip0">
<rect x="12" width="16.9709" height="16.9709" transform="rotate(45 12 0)" fill="white"/>
</clipPath>
</defs>
</svg>
