<svg width="24" height="24" viewBox="0 0 24 24" fill="none" xmlns="http://www.w3.org/2000/svg">
<path d="M9.93087 6.48542L9.93067 6.48562L4.9842 11.4304L4.98402 11.4306L9.93087 6.48542ZM9.93087 6.48542C10.2456 6.17146 10.7551 6.17178 11.0701 6.4852L11.0703 6.48542M9.93087 6.48542H11.0703M11.0703 6.48542C11.3852 6.79955 11.3853 7.30971 11.0705 7.62391L11.0703 6.48542ZM11.0703 7.62411L6.69307 11.9998L11.0698 16.3754C11.0698 16.3754 11.0698 16.3754 11.0698 16.3754L11.07 16.3756L10.8932 16.5524L11.0703 7.62411Z" fill="#A7AEB8" stroke="#A7AEB8" stroke-width="0.5"/>
<path d="M15.9309 6.48542L15.9307 6.48562L10.9842 11.4304L10.984 11.4306L15.9309 6.48542ZM15.9309 6.48542C16.2456 6.17146 16.7551 6.17178 17.0701 6.4852L17.0703 6.48542M15.9309 6.48542H17.0703M17.0703 6.48542C17.3852 6.79955 17.3853 7.30971 17.0705 7.62391L17.0703 6.48542ZM17.0703 7.62411L12.6931 11.9998L17.0698 16.3754C17.0698 16.3754 17.0698 16.3754 17.0698 16.3754L17.07 16.3756L16.8932 16.5524L17.0703 7.62411Z" fill="#A7AEB8" stroke="#A7AEB8" stroke-width="0.5"/>
</svg>
