<svg width="24" height="24" viewBox="0 0 24 24" fill="none" xmlns="http://www.w3.org/2000/svg">
<path d="M6.90319 10.3546V7.04552C6.90319 6.79268 7.10891 6.58699 7.36175 6.58699C7.61462 6.58699 7.82031 6.79271 7.82031 7.04552H8.86378C8.86378 6.2173 8.18997 5.54349 7.36172 5.54349C6.53347 5.54349 5.85972 6.21733 5.85972 7.04552V10.3546H4V11.8266H20V10.3546H6.90319V10.3546Z" fill="#A7AEB8"/>
<path d="M4.78223 12.8703V13.0972V14.8615C4.78223 16.0909 5.70988 17.1071 6.90188 17.2486L6.59898 18.1108L7.58351 18.4566L8.00179 17.2661H15.998L16.4163 18.4566L17.4008 18.1108L17.0979 17.2486C18.2899 17.1071 19.2176 16.0908 19.2176 14.8615V13.0972V12.8703H4.78223Z" fill="#A7AEB8"/>
</svg>
