<svg width="24" height="24" viewBox="0 0 24 24" fill="none" xmlns="http://www.w3.org/2000/svg">
<g clip-path="url(#clip0)">
<path d="M12.5195 6.51947L12.5195 16.2265L14.8359 13.9103C15.0387 13.7074 15.3677 13.7074 15.5705 13.9103C15.7734 14.1132 15.7734 14.4422 15.5705 14.6448L12.3674 17.8478C12.1646 18.0507 11.8356 18.0507 11.6329 17.8478L8.42964 14.6448C8.32815 14.5434 8.27748 14.4104 8.27748 14.2775C8.27748 14.1446 8.32815 14.0117 8.42964 13.9103C8.63244 13.7074 8.96141 13.7074 9.16415 13.9103L11.4807 16.2265L11.4807 6.51947C11.4807 6.23262 11.7133 6 12.0001 6C12.287 6 12.5195 6.23259 12.5195 6.51947Z" fill="#A7AEB8"/>
</g>
<defs>
<clipPath id="clip0">
<rect width="12" height="12" transform="matrix(-4.37114e-08 -1 -1 4.37114e-08 18 18)" fill="white"/>
</clipPath>
</defs>
</svg>
