<svg width="30" height="30" viewBox="0 0 30 30" fill="none" xmlns="http://www.w3.org/2000/svg">
<path d="M10.6506 6.21347V1H10.5921C10.3746 1 10.1659 1.08652 10.0121 1.24033L4.74033 6.51212C4.58652 6.66592 4.5 6.87463 4.5 7.0921V7.15063H9.71368C10.2302 7.15063 10.6506 6.73022 10.6506 6.21347Z" fill="#A7AEB8"/>
<path d="M22.8934 1H12.2913V6.21347C12.2913 7.6347 11.1349 8.79105 9.71368 8.79105H4.5V26.4224C4.5 27.8437 5.65634 29 7.07758 29H22.8934C24.3105 29 25.4709 27.8541 25.4709 26.4224V3.57758C25.4709 2.1604 24.3251 1 22.8934 1ZM10.8907 15.2986C11.2112 14.9782 11.7305 14.9782 12.0509 15.2986L14.1652 17.4129V11.4855C14.1652 11.0324 14.5324 10.6652 14.9855 10.6652C15.4386 10.6652 15.8058 11.0324 15.8058 11.4855V17.4129L17.92 15.2986C18.2402 14.9782 18.7598 14.9782 19.08 15.2986C19.4004 15.6189 19.4004 16.1384 19.08 16.4586L15.5655 19.9734C15.245 20.2938 14.7257 20.2936 14.4055 19.9734L10.8907 16.4586C10.5705 16.1384 10.5705 15.6189 10.8907 15.2986ZM18.5 23.7282H11.4709C11.0179 23.7282 10.6506 23.3608 10.6506 22.9079C10.6506 22.4548 11.0179 22.0876 11.4709 22.0876H18.5C18.9531 22.0876 19.3203 22.4548 19.3203 22.9079C19.3203 23.3608 18.9531 23.7282 18.5 23.7282Z" fill="#A7AEB8"/>
</svg>
