<svg width="24" height="24" viewBox="0 0 24 24" fill="none" xmlns="http://www.w3.org/2000/svg">
<g clip-path="url(#clip0)">
<path d="M7.9598 10.4934C8.0863 10.5827 8.46762 10.8478 9.10376 11.2886C9.73993 11.7295 10.2273 12.0689 10.5658 12.3069C10.603 12.333 10.682 12.3898 10.8029 12.4772C10.9238 12.5647 11.0243 12.6354 11.1042 12.6893C11.1842 12.7432 11.281 12.8037 11.3945 12.8706C11.508 12.9375 11.6149 12.9878 11.7154 13.0211C11.8158 13.0547 11.9088 13.0713 11.9944 13.0713H12H12.0056C12.0912 13.0713 12.1842 13.0547 12.2847 13.0211C12.3851 12.9878 12.4922 12.9374 12.6055 12.8706C12.719 12.8036 12.8157 12.7432 12.8957 12.6893C12.9757 12.6354 13.0761 12.5647 13.197 12.4772C13.3179 12.3897 13.397 12.333 13.4342 12.3069C13.7764 12.0689 14.647 11.4643 16.0458 10.4933C16.3174 10.3037 16.5442 10.0748 16.7265 9.80695C16.9089 9.5392 17 9.25831 17 8.96444C17 8.71887 16.9116 8.50866 16.7349 8.33383C16.5582 8.15895 16.3489 8.07156 16.1071 8.07156H7.89282C7.60638 8.07156 7.38595 8.16828 7.23156 8.3617C7.07719 8.55516 7 8.79698 7 9.08713C7 9.3215 7.10234 9.57547 7.30692 9.8489C7.51149 10.1223 7.72918 10.3372 7.9598 10.4934Z" fill="#A7AEB8"/>
<path d="M16.4419 11.0904C15.2218 11.9162 14.2953 12.558 13.663 13.0157C13.4509 13.1718 13.2789 13.2938 13.1468 13.3811C13.0147 13.4686 12.839 13.5579 12.6195 13.649C12.4 13.7402 12.1955 13.7857 12.0057 13.7857H12H11.9944C11.8047 13.7857 11.6 13.7402 11.3806 13.649C11.1611 13.5579 10.9853 13.4686 10.8532 13.3811C10.7212 13.2938 10.5491 13.1718 10.3371 13.0157C9.83484 12.6474 8.91038 12.0055 7.56367 11.0904C7.35157 10.9491 7.16369 10.7872 7 10.6049V15.0356C7 15.2813 7.08739 15.4914 7.26226 15.6663C7.4371 15.8412 7.64733 15.9286 7.89288 15.9286H16.1072C16.3527 15.9286 16.5629 15.8412 16.7377 15.6663C16.9127 15.4913 17 15.2813 17 15.0356V10.6049C16.84 10.7834 16.6541 10.9454 16.4419 11.0904Z" fill="#A7AEB8"/>
</g>
<defs>
<clipPath id="clip0">
<rect x="7" y="7" width="10" height="10" fill="white"/>
</clipPath>
</defs>
</svg>
