<svg width="24" height="24" viewBox="0 0 24 24" fill="none" xmlns="http://www.w3.org/2000/svg">
<g id="ic/map">
<path id="Mask" fill-rule="evenodd" clip-rule="evenodd" d="M12 8.4C11.2557 8.4 10.65 9.0057 10.65 9.75C10.65 10.4943 11.2557 11.1 12 11.1C12.7443 11.1 13.35 10.4943 13.35 9.75C13.35 9.0057 12.7443 8.4 12 8.4ZM12 12.9C10.263 12.9 8.85005 11.487 8.85005 9.75C8.85005 8.013 10.263 6.6 12 6.6C13.737 6.6 15.15 8.013 15.15 9.75C15.15 11.487 13.737 12.9 12 12.9ZM12 3C8.03015 3 4.80005 6.1986 4.80005 10.1307C4.80005 15.0573 11.1441 20.5518 11.4141 20.7831C11.5833 20.928 11.7912 21 12 21C12.2088 21 12.4167 20.928 12.5859 20.7831C12.8559 20.5518 19.2 15.0573 19.2 10.1307C19.2 6.1986 15.9699 3 12 3Z" fill="#A7AEB8"/>
</g>
</svg>
