<svg width="24" height="24" viewBox="0 0 24 24" fill="none" xmlns="http://www.w3.org/2000/svg">
<path d="M15.0569 3H8.97594C7.94213 3 7.06372 3.84295 7.06372 4.87647V19.1257C7.06372 20.1592 7.92354 21 8.95735 21L15.0483 20.9934C16.0819 20.9934 16.9276 20.1525 16.9276 19.1188L16.9365 4.87547C16.9363 3.83823 16.0948 3 15.0569 3ZM11.1379 4.12503H12.9022C13.0571 4.12503 13.1834 4.25084 13.1834 4.40625C13.1834 4.56166 13.0571 4.68747 12.9022 4.68747H11.1379C10.9825 4.68747 10.8567 4.56166 10.8567 4.40625C10.8567 4.25084 10.9825 4.12503 11.1379 4.12503ZM10.0778 4.21453C10.182 4.11044 10.3717 4.10901 10.4758 4.21453C10.528 4.26657 10.5589 4.33962 10.5589 4.41425C10.5589 4.48745 10.528 4.56037 10.4758 4.61255C10.4239 4.66474 10.3506 4.69547 10.2775 4.69547C10.203 4.69547 10.1314 4.66474 10.0778 4.61255C10.0259 4.56051 9.99631 4.48745 9.99631 4.41425C9.99617 4.33962 10.0259 4.26657 10.0778 4.21453ZM11.9633 20.4426C11.4992 20.4426 11.1218 20.0648 11.1218 19.6009C11.1218 19.1368 11.4992 18.7592 11.9633 18.7592C12.4274 18.7592 12.8048 19.1368 12.8048 19.6009C12.8048 20.0648 12.4272 20.4426 11.9633 20.4426ZM16.0635 18.1872H8.04807V5.67196H16.0635V18.1872Z" fill="#A7AEB8"/>
</svg>
