<svg width="24" height="24" viewBox="0 0 24 24" fill="none" xmlns="http://www.w3.org/2000/svg">
<g clip-path="url(#clip0)">
<path d="M16.5843 13.9643C16.1831 13.9643 15.7457 13.741 15.3207 13.3125C14.8202 12.8078 14.3802 12.0637 14.0817 11.217C13.7832 10.3703 13.6592 9.51476 13.7325 8.8078C13.813 8.03137 14.125 7.50941 14.611 7.33809C15.0968 7.16677 15.6673 7.3776 16.2169 7.93188C16.7174 8.43651 17.1575 9.1807 17.4559 10.0273C17.7544 10.874 17.8784 11.7296 17.8051 12.4365C17.7246 13.213 17.4126 13.7349 16.9267 13.9062C16.8165 13.9451 16.702 13.9643 16.5843 13.9643ZM14.9521 7.81164C14.894 7.81164 14.8389 7.82057 14.7874 7.83871C14.2262 8.03657 14.0039 9.40015 14.5823 11.0405C14.8551 11.8145 15.2513 12.4887 15.6976 12.9387C16.0889 13.3333 16.4724 13.5035 16.7501 13.4056C17.3113 13.2077 17.5336 11.8442 16.9553 10.2038C16.6824 9.42978 16.2863 8.75566 15.84 8.30566C15.5212 7.98419 15.2075 7.81164 14.9521 7.81164Z" fill="#A7AEB8"/>
<path d="M4.77733 18.0471L5.02916 17.7953C5.06234 17.7621 5.08446 17.7194 5.0924 17.6732L5.25947 16.7032C5.27578 16.6084 5.35003 16.5342 5.44484 16.5179L6.32779 16.3658C6.42258 16.3495 6.49682 16.2752 6.51317 16.1804L6.66526 15.2974C6.68157 15.2027 6.75582 15.1284 6.85064 15.1121L7.82063 14.945C7.8669 14.937 7.90954 14.9149 7.94273 14.8818L11.903 10.9215C11.9917 10.8327 11.9917 10.6888 11.903 10.6001L10.5413 9.23844C10.4526 9.14971 10.3087 9.14971 10.22 9.23844L3.0943 16.3641C3.05278 16.4056 3.02894 16.4616 3.02778 16.5203L3.00029 17.9095C2.99772 18.0385 3.10298 18.1437 3.23197 18.1412L4.62117 18.1137C4.67984 18.1125 4.73581 18.0886 4.77733 18.0471Z" fill="#A7AEB8"/>
<path d="M15.7782 5.36289C14.2243 3.80899 11.7049 3.80899 10.151 5.36289C8.59712 6.9168 8.59712 9.43617 10.151 10.99C11.7049 12.5439 14.2243 12.5439 15.7782 10.99C17.3321 9.43613 17.3321 6.91677 15.7782 5.36289ZM13.3666 7.77447C12.8821 7.28995 12.8821 6.50442 13.3666 6.01989C13.8511 5.53537 14.6366 5.53537 15.1212 6.01989C15.6057 6.50442 15.6057 7.28995 15.1212 7.77447C14.6366 8.259 13.8511 8.259 13.3666 7.77447Z" fill="#A7AEB8"/>
<path d="M20.9457 15.9856C21.0378 15.8325 21.0106 15.6358 20.8803 15.5136L17.2801 12.1341C17.1306 11.9937 16.8978 11.9938 16.7484 12.1343L15.2691 13.525L15.2689 12.9896C15.2688 12.8095 15.1228 12.6636 14.9426 12.6636L14.5135 12.6638C14.3334 12.6639 14.1875 12.8099 14.1876 12.99L14.1882 14.5412L13.1507 15.5165C13.0206 15.6389 12.9935 15.8355 13.0857 15.9885L13.2172 16.2068C13.3419 16.4138 13.6257 16.4529 13.8018 16.2874L14.1884 15.924L14.1899 19.6091C14.1899 19.7158 14.2764 19.8022 14.3831 19.8022L19.6513 19.8002C19.7579 19.8002 19.8444 19.7137 19.8443 19.607L19.8428 15.9219L20.2298 16.2851C20.4059 16.4504 20.6897 16.4111 20.8143 16.2041L20.9457 15.9856ZM17.0157 14.2636C16.6977 14.2636 16.44 14.0058 16.44 13.6878C16.44 13.3698 16.6977 13.1121 17.0157 13.1121C17.3337 13.1121 17.5915 13.3698 17.5915 13.6878C17.5915 14.0058 17.3337 14.2636 17.0157 14.2636Z" fill="#A7AEB8"/>
<path d="M17.723 16.6283H16.5056C16.3329 16.6283 16.1929 16.7683 16.1929 16.9409V19.8017H18.0357V16.9409C18.0357 16.7683 17.8957 16.6283 17.723 16.6283Z" fill="white"/>
<path d="M17.0667 13.1148C16.9809 13.2618 16.8739 13.362 16.7504 13.4055C16.4727 13.5034 16.0891 13.3332 15.6978 12.9386C15.2515 12.4886 14.8554 11.8145 14.5825 11.0404C14.0042 9.4001 14.2264 8.03653 14.7876 7.83863C14.8391 7.82049 14.8942 7.81156 14.9523 7.81156C14.9899 7.81156 15.029 7.81578 15.0691 7.8232C15.0868 7.80745 15.1043 7.79156 15.1213 7.77461C15.2424 7.65347 15.333 7.51344 15.3935 7.36406C15.1203 7.26239 14.8551 7.25202 14.6112 7.33801C14.1252 7.50933 13.8133 8.03129 13.7327 8.80772C13.6594 9.51467 13.7834 10.3703 14.0819 11.2169C14.3804 12.0635 14.8204 12.8077 15.3209 13.3124C15.746 13.7409 16.1834 13.9642 16.5846 13.9642C16.7022 13.9642 16.8167 13.945 16.9269 13.9061C17.1683 13.821 17.3667 13.6494 17.5152 13.403C17.424 13.2435 17.2592 13.1317 17.0667 13.1148Z" fill="#A7AEB8"/>
</g>
<defs>
<clipPath id="clip0">
<rect x="3" y="3" width="18" height="18" fill="white"/>
</clipPath>
</defs>
</svg>
