<svg width="24" height="24" viewBox="0 0 24 24" fill="none" xmlns="http://www.w3.org/2000/svg">
<path d="M8.85714 12.0253C8.16571 12.0253 7.61048 11.8284 7.19143 11.4346C6.78286 11.0408 6.55762 10.5063 6.51571 9.83122C6.50524 9.63994 6.5 9.38678 6.5 9.07173C6.5 8.73418 6.50524 8.46414 6.51571 8.2616C6.55762 7.564 6.77762 7.01266 7.17571 6.6076C7.57381 6.20253 8.13429 6 8.85714 6C9.58 6 10.1405 6.20253 10.5386 6.6076C10.9471 7.01266 11.1671 7.564 11.1986 8.2616C11.2195 8.71167 11.23 9.00422 11.23 9.13924C11.23 9.26301 11.2195 9.49367 11.1986 9.83122C11.1671 10.5063 10.9419 11.0408 10.5229 11.4346C10.1143 11.8284 9.55905 12.0253 8.85714 12.0253ZM7.56857 17.8987C7.47429 17.8987 7.39571 17.8706 7.33286 17.8143C7.27 17.7468 7.23857 17.6624 7.23857 17.5612C7.23857 17.4937 7.25952 17.4318 7.30143 17.3755L15.0486 6.40506C15.1324 6.29255 15.211 6.21378 15.2843 6.16878C15.3576 6.11252 15.4571 6.08439 15.5829 6.08439H16.4157C16.5205 6.08439 16.599 6.11814 16.6514 6.18565C16.7143 6.24191 16.7457 6.32068 16.7457 6.42194C16.7457 6.48945 16.7248 6.55134 16.6829 6.6076L8.93571 17.5781C8.8519 17.6906 8.77333 17.775 8.7 17.8312C8.62667 17.8762 8.52714 17.8987 8.40143 17.8987H7.56857ZM8.85714 10.7764C9.16095 10.7764 9.38619 10.6807 9.53286 10.4895C9.67952 10.2869 9.76333 10.0394 9.78429 9.74684C9.80524 9.36428 9.81571 9.12799 9.81571 9.03798C9.81571 8.91421 9.80524 8.68354 9.78429 8.34599C9.77381 8.05345 9.69 7.81153 9.53286 7.62025C9.38619 7.41772 9.16095 7.31646 8.85714 7.31646C8.55333 7.31646 8.3281 7.41772 8.18143 7.62025C8.03476 7.81153 7.95619 8.05345 7.94571 8.34599C7.93524 8.51477 7.93 8.74543 7.93 9.03798C7.93 9.31927 7.93524 9.55556 7.94571 9.74684C7.96667 10.0394 8.04524 10.2869 8.18143 10.4895C8.3281 10.6807 8.55333 10.7764 8.85714 10.7764ZM15.1271 18C14.4357 18 13.8805 17.7975 13.4614 17.3924C13.0529 16.9761 12.8276 16.4248 12.7857 15.7384C12.7752 15.5471 12.77 15.294 12.77 14.9789C12.77 14.6526 12.7752 14.3882 12.7857 14.1857C12.8276 13.488 13.0476 12.9367 13.4457 12.5316C13.8438 12.1266 14.4043 11.9241 15.1271 11.9241C15.85 11.9241 16.4105 12.1266 16.8086 12.5316C17.2171 12.9367 17.4371 13.488 17.4686 14.1857C17.4895 14.6357 17.5 14.9226 17.5 15.0464C17.5 15.1702 17.4895 15.4008 17.4686 15.7384C17.4267 16.4248 17.1962 16.9761 16.7771 17.3924C16.3686 17.7975 15.8186 18 15.1271 18ZM15.1271 16.6835C15.4414 16.6835 15.6667 16.5879 15.8029 16.3966C15.9495 16.1941 16.0333 15.9522 16.0543 15.6709C16.0752 15.2883 16.0857 15.052 16.0857 14.962C16.0857 14.8383 16.0752 14.6076 16.0543 14.27C16.0438 13.9775 15.96 13.73 15.8029 13.5274C15.6562 13.3249 15.431 13.2236 15.1271 13.2236C14.8233 13.2236 14.5981 13.3249 14.4514 13.5274C14.3048 13.7187 14.221 13.9662 14.2 14.27C14.1895 14.4388 14.1843 14.6695 14.1843 14.962C14.1843 15.2433 14.1895 15.4796 14.2 15.6709C14.2314 15.9634 14.3152 16.2053 14.4514 16.3966C14.5981 16.5879 14.8233 16.6835 15.1271 16.6835Z" fill="#A7AEB8"/>
</svg>
