<svg width="24" height="24" viewBox="0 0 24 24" fill="none" xmlns="http://www.w3.org/2000/svg">
<path d="M19.7344 7.25391C19.7344 6.96263 19.4983 6.72656 19.207 6.72656H17.625V9.32812H19.7344V7.25391Z" fill="#A7AEB8"/>
<path d="M6.375 6.72656H4.79297C4.50169 6.72656 4.26562 6.96263 4.26562 7.25391V9.32812H6.375V6.72656Z" fill="#A7AEB8"/>
<path d="M16.6406 6.72656V3.52734C16.6406 3.23607 16.4046 3 16.1133 3H8.02734C7.73607 3 7.5 3.23607 7.5 3.52734V9.32812H16.6406V6.72656Z" fill="#A7AEB8"/>
<path d="M16.5703 14.6016H7.42969V20.4727C7.42969 20.7639 7.66576 21 7.95703 21H16.043C16.3342 21 16.5703 20.7639 16.5703 20.4727V20.2635C16.5703 20.2634 16.5703 20.2631 16.5703 20.2628V14.6016Z" fill="#A7AEB8"/>
<path d="M20.4727 10.3828H3.52734C3.23607 10.3828 3 10.6189 3 10.9102V19.2423C3 19.5335 3.23607 19.7697 3.52734 19.7697H6.375V14.0742C6.375 13.7829 6.61107 13.5469 6.90234 13.5469H17.0977C17.3888 13.5469 17.625 13.7829 17.625 14.0742V19.7697H20.4727C20.7639 19.7697 21 19.5335 21 19.2423V10.9102C21 10.6189 20.7639 10.3828 20.4727 10.3828Z" fill="#A7AEB8"/>
</svg>
