<svg width="24" height="24" viewBox="0 0 24 24" fill="none" xmlns="http://www.w3.org/2000/svg">
<path d="M12 3C7.0372 3 3 7.0372 3 12C3 16.9628 7.0372 21 12 21C16.9628 21 21 16.9628 21 12C21 7.0372 16.9628 3 12 3Z" fill="#A7AEB8"/>
<path d="M12.7499 16.4999C12.7499 16.9141 12.4141 17.2499 12 17.2499C11.5858 17.2499 11.25 16.9141 11.25 16.4999C11.25 16.0858 11.5858 15.75 12 15.75C12.4141 15.75 12.7499 16.0858 12.7499 16.4999Z" fill="#ECEFF1"/>
<path d="M13.1872 12.4815C12.9218 12.6038 12.75 12.8716 12.75 13.1634V13.5001C12.75 13.914 12.4147 14.2501 12 14.2501C11.5853 14.2501 11.25 13.914 11.25 13.5001V13.1634C11.25 12.288 11.7645 11.4856 12.5588 11.1188C13.323 10.7671 13.875 9.83328 13.875 9.37502C13.875 8.34161 13.0342 7.50006 12 7.50006C10.9658 7.50006 10.125 8.34161 10.125 9.37502C10.125 9.78906 9.78969 10.1251 9.37495 10.1251C8.96022 10.1251 8.625 9.78906 8.625 9.37502C8.625 7.51434 10.1392 6.00002 12 6.00002C13.8608 6.00002 15.375 7.51434 15.375 9.37502C15.375 10.3884 14.496 11.8778 13.1872 12.4815Z" fill="#FAFAFA"/>
</svg>
