<svg width="24" height="24" viewBox="0 0 24 24" fill="none" xmlns="http://www.w3.org/2000/svg">
<g clip-path="url(#clip0)">
<path d="M18.6936 6.07343C18.6936 5.65113 18.5288 5.25359 18.2301 4.9549L16.7387 3.4635C16.4441 3.16893 16.026 3 15.6099 3H15.5193V6.16406H18.6936L18.6936 6.07343Z" fill="#A7AEB8"/>
<path d="M14.6306 13.8822C14.7315 13.5757 14.9077 13.2904 15.1373 13.0592L18.7079 9.50306V7.21875H15.0024C14.7109 7.21875 14.4922 6.98289 14.4922 6.69141V3H6.58203C5.70966 3 5 3.70966 5 4.58203V19.418C5 20.2903 5.70966 21 6.58203 21H17.1118C17.9842 21 18.7079 20.2903 18.7079 19.418V15.4822L18.1284 16.0476C17.8936 16.2804 17.6186 16.4498 17.3085 16.5534L15.6317 17.1132L15.3763 17.1271C14.954 17.1271 14.5544 16.9216 14.3062 16.5776C14.06 16.2351 13.9931 15.7912 14.1269 15.39L14.6306 13.8822ZM7.63672 12.4922H12.893C13.1845 12.4922 13.4204 12.7281 13.4204 13.0195C13.4204 13.311 13.1845 13.5469 12.893 13.5469H7.63672C7.34524 13.5469 7.10938 13.311 7.10938 13.0195C7.10938 12.7281 7.34524 12.4922 7.63672 12.4922ZM7.10938 10.9102C7.10938 10.6187 7.34524 10.3828 7.63672 10.3828H12.893C13.1845 10.3828 13.4204 10.6187 13.4204 10.9102C13.4204 11.2016 13.1845 11.4375 12.893 11.4375H7.63672C7.34524 11.4375 7.10938 11.2016 7.10938 10.9102ZM7.10938 15.1289C7.10938 14.8374 7.34524 14.6016 7.63672 14.6016H12.893C13.1845 14.6016 13.4204 14.8374 13.4204 15.1289C13.4204 15.4204 13.1845 15.6562 12.893 15.6562H7.63672C7.34524 15.6562 7.10938 15.4204 7.10938 15.1289ZM15.0024 17.7656C15.2939 17.7656 15.5298 18.0015 15.5298 18.293C15.5298 18.5844 15.2939 18.8203 15.0024 18.8203H11.8383C11.5469 18.8203 11.311 18.5844 11.311 18.293C11.311 18.0015 11.5469 17.7656 11.8383 17.7656H15.0024ZM7.63672 9.32812C7.34524 9.32812 7.10938 9.09226 7.10938 8.80078C7.10938 8.5093 7.34524 8.27344 7.63672 8.27344H15.0024C15.2939 8.27344 15.5298 8.5093 15.5298 8.80078C15.5298 9.09226 15.2939 9.32812 15.0024 9.32812H7.63672Z" fill="#A7AEB8"/>
<path d="M15.5861 14.3486L15.1273 15.725C15.0585 15.9312 15.2547 16.1274 15.4609 16.0585L16.8365 15.5991L15.5861 14.3486Z" fill="#A7AEB8"/>
<path d="M19.6818 10.0068L16.2087 13.4798L17.7066 14.9777C18.4915 14.1925 20.0189 12.665 21.1794 11.5044L19.6818 10.0068Z" fill="#A7AEB8"/>
<path d="M22.6904 8.49415C22.505 8.30772 22.232 8.20113 21.9426 8.20113C21.6531 8.20113 21.3802 8.30772 21.1938 8.49468L20.4275 9.26098L21.9251 10.7586C22.3446 10.339 22.6346 10.049 22.6914 9.9922C23.1034 9.57964 23.1033 8.90766 22.6904 8.49415Z" fill="#A7AEB8"/>
<path d="M22.6914 9.99199C22.6914 9.99199 22.6914 9.99196 22.6915 9.99193C22.6927 9.99074 22.6932 9.99021 22.6942 9.98924C22.6932 9.99024 22.6927 9.99077 22.6914 9.99199Z" fill="#A7AEB8"/>
<path d="M22.6943 9.98878C22.696 9.98709 22.698 9.98512 22.699 9.9841C22.698 9.98516 22.696 9.98709 22.6943 9.98878Z" fill="#A7AEB8"/>
<path d="M22.699 9.98461C22.7024 9.9812 22.7024 9.98113 22.699 9.98461V9.98461Z" fill="#A7AEB8"/>
</g>
<defs>
<clipPath id="clip0">
<rect x="5" y="3" width="18" height="18" fill="white"/>
</clipPath>
</defs>
</svg>
