<svg width="24" height="24" viewBox="0 0 24 24" fill="none" xmlns="http://www.w3.org/2000/svg">
<g clip-path="url(#clip0)">
<path d="M7.26329 18.0001C6.65287 18.0001 6.15802 18.495 6.15802 19.1054V20.0528C6.15802 20.2272 6.01664 20.3685 5.84223 20.3685C5.66783 20.3685 5.52644 20.2272 5.52644 20.0528C5.52644 19.4423 5.0316 18.9475 4.42118 18.9475C3.81076 18.9475 3.31592 19.4423 3.31592 20.0528V20.8422H8.36855V19.1054C8.36855 18.495 7.87371 18.0001 7.26329 18.0001Z" fill="#A7AEB8"/>
<path d="M19.8948 18.9474C19.2843 18.9474 18.7895 19.4422 18.7895 20.0526C18.7895 20.2271 18.6481 20.3684 18.4737 20.3684C18.2993 20.3684 18.1579 20.2271 18.1579 20.0526V19.0705C18.1483 18.4601 17.6457 17.973 17.0353 17.9826C16.4249 17.9922 15.9378 18.4949 15.9474 19.1053V20.8421H21V20.0526C21 19.4422 20.5052 18.9474 19.8948 18.9474Z" fill="#A7AEB8"/>
<path d="M18.7548 18.7422C18.9487 18.5775 19.176 18.4569 19.4211 18.3885V12.2702C19.1999 12.0933 17.3999 10.6502 11.9999 7.05016C5.69985 11.5502 5.69985 11.5502 4.89478 12.177V18.3885C5.1415 18.4567 5.37011 18.5786 5.56425 18.7454C5.74891 17.8759 6.56019 17.2862 7.44419 17.3788C8.3282 17.4715 8.99961 18.2165 9.00004 19.1054V20.8422H15.3158V19.1054C15.3221 18.2199 15.9924 17.4804 16.8731 17.3874C17.7537 17.2944 18.5637 17.8776 18.7548 18.7422Z" fill="#A7AEB8"/>
<path d="M11.982 18.0002C11.9198 18.0002 11.8669 17.9794 11.8234 17.9379C11.7861 17.9024 11.7674 17.855 11.7674 17.7957V17.1735C11.3321 17.1379 10.9559 17.0431 10.6387 16.889C10.3215 16.729 10.079 16.5335 9.9111 16.3024C9.7494 16.0653 9.66234 15.8135 9.6499 15.5468C9.6499 15.4994 9.66856 15.4579 9.70587 15.4224C9.7494 15.3809 9.79916 15.3602 9.85513 15.3602H10.3402C10.4521 15.3602 10.5299 15.4194 10.5734 15.5379C10.6356 15.7868 10.7973 16.0002 11.0585 16.1779C11.3197 16.3557 11.6897 16.4446 12.1686 16.4446C12.6847 16.4446 13.0734 16.3587 13.3346 16.1868C13.5958 16.009 13.7264 15.7631 13.7264 15.449C13.7264 15.2476 13.6611 15.0846 13.5305 14.9602C13.4061 14.8357 13.2196 14.7261 12.9708 14.6313C12.722 14.5364 12.3489 14.4179 11.8514 14.2757C11.3663 14.1453 10.9807 14.0061 10.6947 13.8579C10.4086 13.7098 10.1941 13.5261 10.051 13.3068C9.90799 13.0876 9.83647 12.812 9.83647 12.4802C9.83647 12.0416 10.0075 11.6713 10.3495 11.369C10.6916 11.0609 11.1642 10.8772 11.7674 10.8179V10.2046C11.7674 10.1453 11.7861 10.0979 11.8234 10.0624C11.8669 10.0209 11.9198 10.0002 11.982 10.0002H12.3365C12.3987 10.0002 12.4484 10.0209 12.4857 10.0624C12.5293 10.0979 12.551 10.1453 12.551 10.2046V10.8268C12.949 10.8742 13.288 10.9809 13.5678 11.1468C13.8539 11.3127 14.0684 11.5083 14.2115 11.7335C14.3607 11.9587 14.4416 12.1839 14.454 12.409C14.454 12.4564 14.4353 12.4979 14.398 12.5335C14.3669 12.569 14.3203 12.5868 14.2581 12.5868H13.7637C13.6331 12.5868 13.5523 12.5305 13.5212 12.4179C13.4839 12.169 13.3377 11.9646 13.0827 11.8046C12.8278 11.6387 12.5075 11.5557 12.1219 11.5557C11.699 11.5557 11.3663 11.6327 11.1238 11.7868C10.8812 11.9409 10.76 12.169 10.76 12.4713C10.76 12.6727 10.8159 12.8387 10.9279 12.969C11.046 13.0994 11.2233 13.215 11.4596 13.3157C11.6959 13.4105 12.0411 13.5202 12.4951 13.6446C13.0237 13.7809 13.4403 13.9231 13.7451 14.0713C14.0498 14.2135 14.2768 14.3942 14.426 14.6135C14.5753 14.8268 14.6499 15.0994 14.6499 15.4313C14.6499 15.935 14.4633 16.3409 14.0902 16.649C13.7171 16.9513 13.204 17.129 12.551 17.1824V17.7957C12.551 17.855 12.5293 17.9024 12.4857 17.9379C12.4484 17.9794 12.3987 18.0002 12.3365 18.0002H11.982Z" fill="white"/>
<path d="M20.9952 9.751C20.9763 9.6153 20.9031 9.49246 20.7917 9.40953L12.3196 3.10551C12.1307 2.96503 11.8693 2.96503 11.6805 3.10551L3.20834 9.40953C3.0969 9.49243 3.0237 9.6153 3.00482 9.751C2.98594 9.88674 3.02296 10.0243 3.10769 10.1333L4.29538 11.6613L11.6805 6.16614C11.8693 6.02566 12.1307 6.02566 12.3196 6.16614L19.7047 11.6613L20.8923 10.1333C20.977 10.0243 21.014 9.88677 20.9952 9.751Z" fill="#A7AEB8"/>
</g>
<defs>
<clipPath id="clip0">
<rect x="3" y="3" width="18" height="18" fill="white"/>
</clipPath>
</defs>
</svg>
