<svg width="24" height="24" viewBox="0 0 24 24" fill="none" xmlns="http://www.w3.org/2000/svg">
<path d="M19.3163 18.4347L15.7102 14.8286C16.6041 13.7388 17.1429 12.3429 17.1429 10.8214C17.1429 7.33163 14.3112 4.5 10.8214 4.5C7.32857 4.5 4.5 7.33163 4.5 10.8214C4.5 14.3112 7.32857 17.1429 10.8214 17.1429C12.3429 17.1429 13.7357 16.6071 14.8255 15.7133L18.4316 19.3163C18.6765 19.5612 19.0714 19.5612 19.3163 19.3163C19.5612 19.0745 19.5612 18.6765 19.3163 18.4347ZM10.8214 15.8847C8.02653 15.8847 5.7551 13.6133 5.7551 10.8214C5.7551 8.02959 8.02653 5.7551 10.8214 5.7551C13.6133 5.7551 15.8878 8.02959 15.8878 10.8214C15.8878 13.6133 13.6133 15.8847 10.8214 15.8847Z" fill="#A7AEB8"/>
<path fill-rule="evenodd" clip-rule="evenodd" d="M16.3734 14.7847L19.6676 18.0789C19.6681 18.0793 19.6685 18.0797 19.6689 18.0801C20.1104 18.5175 20.1104 19.2337 19.6688 19.671C19.2286 20.11 18.518 20.1097 18.0782 19.67C18.0782 19.67 18.0781 19.6699 18.0781 19.6699L14.7817 16.3763C13.6657 17.1739 12.2991 17.6429 10.8214 17.6429C7.05227 17.6429 4 14.5872 4 10.8214C4 7.05565 7.05227 4 10.8214 4C14.5874 4 17.6429 7.05549 17.6429 10.8214C17.6429 12.2994 17.1712 13.6684 16.3734 14.7847ZM15.7102 14.8286L19.3163 18.4347C19.5612 18.6765 19.5612 19.0745 19.3163 19.3163C19.0714 19.5612 18.6765 19.5612 18.4316 19.3163L14.8255 15.7133C13.7357 16.6071 12.3429 17.1429 10.8214 17.1429C7.32857 17.1429 4.5 14.3112 4.5 10.8214C4.5 7.33163 7.32857 4.5 10.8214 4.5C14.3112 4.5 17.1429 7.33163 17.1429 10.8214C17.1429 12.3429 16.6041 13.7388 15.7102 14.8286ZM6.2551 10.8214C6.2551 13.3369 8.30248 15.3847 10.8214 15.3847C13.3375 15.3847 15.3878 13.3367 15.3878 10.8214C15.3878 8.30573 13.3371 6.2551 10.8214 6.2551C8.30287 6.2551 6.2551 8.30554 6.2551 10.8214ZM5.7551 10.8214C5.7551 13.6133 8.02653 15.8847 10.8214 15.8847C13.6133 15.8847 15.8878 13.6133 15.8878 10.8214C15.8878 8.02959 13.6133 5.7551 10.8214 5.7551C8.02653 5.7551 5.7551 8.02959 5.7551 10.8214Z" fill="#A7AEB8"/>
</svg>
