<svg width="24" height="24" viewBox="0 0 24 24" fill="none" xmlns="http://www.w3.org/2000/svg">
<path d="M19.2058 11.2296L19.1998 6C19.1998 5.748 19.0414 5.5224 18.805 5.436L12.205 3.036C12.073 2.988 11.9278 2.988 11.7946 3.036L5.19464 5.436C4.95704 5.5224 4.79984 5.748 4.79984 6L4.79384 11.2296C4.75424 15.5124 4.72424 18.606 11.8102 20.9688C11.8714 20.9892 11.9362 21 11.9998 21C12.0634 21 12.1282 20.9892 12.1894 20.97C19.2742 18.6072 19.2466 15.5136 19.2058 11.2296ZM11.9998 6.6C13.3234 6.6 14.3998 7.6764 14.3998 9C14.3998 10.3236 13.3234 11.4 11.9998 11.4C10.6762 11.4 9.59984 10.3236 9.59984 9C9.59984 7.6764 10.6762 6.6 11.9998 6.6ZM14.9998 16.2H8.99984C8.66864 16.2 8.39984 15.9312 8.39984 15.6C8.39984 13.9452 9.74624 12.6 11.3998 12.6H12.5998C14.2546 12.6 15.5998 13.9452 15.5998 15.6C15.5998 15.9312 15.331 16.2 14.9998 16.2Z" fill="#A7AEB8"/>
</svg>
