<svg width="24" height="24" viewBox="0 0 24 24" fill="none" xmlns="http://www.w3.org/2000/svg">
<path d="M12 4C7.6 4 4 7.6 4 12C4 16.4 7.6 20 12 20C16.4 20 20 16.4 20 12C20 7.6 16.4 4 12 4ZM14.8 8.8C15.44 8.8 16 9.36 16 10C16 10.64 15.44 11.2 14.8 11.2C14.16 11.2 13.6 10.64 13.6 10C13.6 9.36 14.16 8.8 14.8 8.8ZM9.2 8.8C9.84 8.8 10.4 9.36 10.4 10C10.4 10.64 9.84 11.2 9.2 11.2C8.56 11.2 8 10.64 8 10C8 9.36 8.56 8.8 9.2 8.8ZM12 16.8C9.92 16.8 8.16 15.44 7.52 13.6H16.48C15.84 15.44 14.08 16.8 12 16.8Z" fill="#A7AEB8"/>
</svg>
