<svg width="24" height="24" viewBox="0 0 24 24" fill="none" xmlns="http://www.w3.org/2000/svg">
<path d="M17.8242 7.77584C17.5899 7.54152 17.2101 7.54152 16.9757 7.77584L9.78736 14.9643L7.02427 12.2012C6.78997 11.9669 6.4101 11.9669 6.17575 12.2012C5.94142 12.4355 5.94142 12.8154 6.17575 13.0497L9.3631 16.237C9.59733 16.4713 9.97748 16.4711 10.2116 16.237L17.8242 8.62437C18.0586 8.39007 18.0585 8.01017 17.8242 7.77584Z" fill="#A7AEB8"/>
<path fill-rule="evenodd" clip-rule="evenodd" d="M16.2686 7.0687C16.8935 6.44394 17.9065 6.44383 18.5314 7.06877C19.1561 7.69354 19.1563 8.70657 18.5313 9.33148C18.5313 9.33149 18.5314 9.33147 18.5313 9.33148L10.9187 16.9441C10.2943 17.5685 9.28102 17.5692 8.65599 16.9441C8.65595 16.9441 8.65603 16.9441 8.65599 16.9441L5.46864 13.7568C4.84381 13.132 4.84375 12.1189 5.46867 11.494C6.09343 10.8694 7.10646 10.8691 7.73138 11.4941C7.73139 11.4941 7.73137 11.4941 7.73138 11.4941L9.78735 13.5501L16.2686 7.0687ZM9.78736 14.9643L7.02427 12.2012C6.78997 11.9669 6.41009 11.9669 6.17574 12.2012C5.94142 12.4355 5.94142 12.8154 6.17574 13.0497L9.36309 16.237C9.59733 16.4713 9.97748 16.4711 10.2116 16.237L17.8242 8.62437C18.0586 8.39007 18.0585 8.01017 17.8242 7.77584C17.5899 7.54152 17.2101 7.54152 16.9757 7.77584L9.78736 14.9643Z" fill="#A7AEB8"/>
</svg>
