<svg width="24" height="24" viewBox="0 0 24 24" fill="none" xmlns="http://www.w3.org/2000/svg">
<path d="M17.1954 5.03453H15.2679V4.93359C15.2679 3.86737 14.4005 3 13.3343 3H10.658C9.5918 3 8.72443 3.86737 8.72443 4.93359V5.03453H6.79688C6.21446 5.03453 5.74219 5.50667 5.74219 6.08922V6.89314C5.74219 7.08733 5.89957 7.24471 6.09375 7.24471H17.8986C18.0927 7.24471 18.2501 7.08733 18.2501 6.89314V6.08922C18.2501 5.50667 17.778 5.03453 17.1954 5.03453ZM9.77911 4.93359C9.77911 4.44896 10.1734 4.05469 10.658 4.05469H13.3343C13.8189 4.05469 14.2132 4.44896 14.2132 4.93359V5.03453H9.77911V4.93359Z" fill="#A7AEB8"/>
<path d="M6.19751 8.29938L7.04964 20.5093C7.069 20.7856 7.29875 21 7.57574 21H16.4169C16.6938 21 16.9236 20.7856 16.9428 20.5093L17.7948 8.29938H6.19751ZM9.90924 19.2065C9.90169 19.2069 9.894 19.207 9.88644 19.207C9.60561 19.207 9.37201 18.9854 9.36006 18.7021L9.0085 10.4403C8.996 10.1493 9.22191 9.90338 9.51291 9.89102C9.80405 9.87907 10.0499 10.1046 10.0622 10.3956L10.4138 18.6573C10.4261 18.9483 10.2002 19.1941 9.90924 19.2065ZM12.5236 18.6797C12.5236 18.9709 12.2875 19.207 11.9962 19.207C11.705 19.207 11.4689 18.9709 11.4689 18.6797V10.418C11.4689 10.1267 11.705 9.89061 11.9962 9.89061C12.2875 9.89061 12.5236 10.1267 12.5236 10.418V18.6797ZM14.6325 18.7021C14.6205 18.9855 14.3869 19.207 14.106 19.207C14.0985 19.207 14.0908 19.2069 14.0832 19.2066C13.7922 19.1942 13.5663 18.9483 13.5787 18.6573L13.9302 10.3956C13.9427 10.1046 14.189 9.8788 14.4796 9.89116C14.7706 9.90352 14.9965 10.1493 14.9841 10.4403L14.6325 18.7021Z" fill="#A7AEB8"/>
</svg>
