<svg width="24" height="24" viewBox="0 0 24 24" fill="none" xmlns="http://www.w3.org/2000/svg">
<g clip-path="url(#clip0)">
<path d="M12 17.3648C8.56091 17.3648 5.44216 15.4832 3.14084 12.4271C2.95305 12.1767 2.95305 11.8269 3.14084 11.5765C5.44216 8.5167 8.56091 6.63514 12 6.63514C15.4391 6.63514 18.5578 8.5167 20.8592 11.5728C21.0469 11.8232 21.0469 12.173 20.8592 12.4234C18.5578 15.4832 15.4391 17.3648 12 17.3648ZM12.2467 8.22213C9.96379 8.07853 8.07855 9.96008 8.22215 12.2467C8.33998 14.1319 9.86806 15.66 11.7533 15.7778C14.0362 15.9214 15.9214 14.0399 15.7778 11.7533C15.6563 9.87171 14.1283 8.34364 12.2467 8.22213ZM12.1326 9.96745C10.9027 9.89012 9.88647 10.9027 9.96747 12.1325C10.0301 13.1488 10.8549 13.9699 11.8711 14.0362C13.101 14.1135 14.1172 13.1009 14.0362 11.8711C13.9699 10.8512 13.1451 10.03 12.1326 9.96745Z" fill="#A7AEB8"/>
</g>
<defs>
<clipPath id="clip0">
<rect width="18" height="18" transform="matrix(1 0 0 -1 3 21)" fill="white"/>
</clipPath>
</defs>
</svg>
